#!OML:ASF E:\inclinewalkrobotboard\Project 1\Capture day 1\Session 1\subject1.ASF
:FULLY-SPECIFIED
:DEGREES
426
root 9.21299 27.7821 -10.7944 -168.643 0.486686 179.753
lowerback -6.99394 1.20492 -5.84921
upperback 1.93678 2.07543 1.42166
thorax 5.70358 0.792721 5.0272
lowerneck 6.06326 -0.299127 -6.0133
upperneck 20.7815 -3.70216 4.11853
head 5.44349 -2.95005 2.12256
rclavicle -1.09829e-014 -2.98177e-015
rhumerus -41.113 -27.8514 -71.5062
rradius 28.3545
rwrist 13.4139
rhand -13.7166 -37.4572
rfingers 7.12502
rthumb 12.4024 -67.0693
lclavicle -1.09829e-014 -2.98177e-015
lhumerus -30.2089 4.81085 86.7778
lradius 25.4374
lwrist -22.4972
lhand -23.9563 -19.7665
lfingers 7.12502
lthumb 2.51956 10.1984
rfemur -10.9329 7.70309 20.0914
rtibia 15.4221
rfoot -30.5842 -5.01739
rtoes -19.9368
lfemur -8.93738 -12.4352 -20.4127
ltibia 14.6013
lfoot -33.7689 7.31456
ltoes -64.4414
427
root 9.21741 27.7804 -10.7926 -168.642 0.419003 179.778
lowerback -6.95061 1.14981 -5.89994
upperback 1.94167 2.00126 1.47885
thorax 5.69036 0.75378 5.10699
lowerneck 6.20255 -0.304489 -6.05008
upperneck 20.5848 -3.69072 4.11418
head 5.35896 -2.94135 2.13105
rclavicle -5.2181e-015 -7.35503e-015
rhumerus -41.242 -28.0232 -71.1909
rradius 28.2205
rwrist 13.5585
rhand -13.631 -37.5388
rfingers 7.12502
rthumb 12.4849 -67.1459
lclavicle -5.2181e-015 -7.35503e-015
lhumerus -30.2585 5.19258 86.5852
lradius 25.1099
lwrist -22.5528
lhand -23.8336 -19.8496
lfingers 7.12502
lthumb 2.63804 10.1138
rfemur -11.0099 7.82681 20.1599
rtibia 15.5836
rfoot -30.6599 -5.09606
rtoes -19.2231
lfemur -8.9982 -12.4239 -20.3278
ltibia 14.6655
lfoot -33.8797 6.98101
ltoes -64.2652
428
root 9.21824 27.7781 -10.7947 -168.636 0.407682 179.828
lowerback -6.9671 1.0525 -5.91508
upperback 1.95686 1.86977 1.5694
thorax 5.73002 0.684965 5.19832
lowerneck 6.33119 -0.245432 -6.18694
upperneck 20.4179 -3.6019 4.12111
head 5.28303 -2.90465 2.16177
rclavicle -3.35946e-014 -9.34288e-015
rhumerus -41.2727 -27.9337 -70.9928
rradius 28.167
rwrist 13.5315
rhand -13.5382 -37.9809
rfingers 7.12502
rthumb 12.5743 -67.5825
lclavicle -3.35946e-014 -9.34288e-015
lhumerus -30.373 5.63938 86.3888
lradius 24.8824
lwrist -22.6182
lhand -23.3861 -19.3598
lfingers 7.12502
lthumb 3.07027 10.5978
rfemur -11.0639 7.87063 20.2316
rtibia 15.7041
rfoot -30.6988 -5.1281
rtoes -19.0948
lfemur -9.02385 -12.4208 -20.2611
ltibia 14.7136
lfoot -33.92 6.98412
ltoes -64.2633
429
root 9.21993 27.7775 -10.7984 -168.652 0.409741 179.801
lowerback -6.96473 1.00197 -5.9766
upperback 1.94262 1.80631 1.58803
thorax 5.72002 0.651743 5.24567
lowerneck 6.55562 -0.226043 -6.21353
upperneck 20.2511 -3.5873 4.15229
head 5.19428 -2.89961 2.1805
rclavicle -1.72943e-014 -7.35503e-015
rhumerus -41.5905 -28.443 -70.3432
rradius 27.8111
rwrist 13.9835
rhand -13.7341 -36.9993
rfingers 7.12502
rthumb 12.3855 -66.6124
lclavicle -1.72943e-014 -7.35503e-015
lhumerus -30.5506 5.84076 86.1706
lradius 24.5246
lwrist -22.7224
lhand -23.4291 -19.3054
lfingers 7.12502
lthumb 3.02875 10.6528
rfemur -11.0164 7.87933 20.2133
rtibia 15.6851
rfoot -30.7263 -5.187
rtoes -19.4428
lfemur -9.0317 -12.4115 -20.304
ltibia 14.8039
lfoot -33.9135 7.14358
ltoes -64.4024
430
root 9.22163 27.7779 -10.8005 -168.642 0.382581 179.772
lowerback -6.98437 0.950084 -6.04157
upperback 1.95136 1.74325 1.61079
thorax 5.74691 0.616588 5.30076
lowerneck 6.61665 -0.226089 -6.27558
upperneck 20.138 -3.58195 4.18657
head 5.15004 -2.89557 2.20351
rclavicle -1.66979e-014 -1.80894e-014
rhumerus -41.8421 -28.7891 -69.8839
rradius 27.6453
rwrist 14.3453
rhand -13.8959 -37.1791
rfingers 7.12502
rthumb 12.2295 -66.8016
lclavicle -1.66979e-014 -1.80894e-014
lhumerus -30.679 6.03663 85.9548
lradius 24.1266
lwrist -22.7475
lhand -23.5031 -19.5235
lfingers 7.12502
lthumb 2.95726 10.4358
rfemur -11.0207 7.90511 20.1897
rtibia 15.7122
rfoot -30.8093 -5.2443
rtoes -19.6439
lfemur -9.07262 -12.4295 -20.3345
ltibia 14.8779
lfoot -33.9434 7.19843
ltoes -64.4738
431
root 9.22278 27.779 -10.8013 -168.676 0.311326 179.719
lowerback -6.96799 0.856783 -6.16124
upperback 2.02594 1.62841 1.66484
thorax 5.82856 0.54977 5.41486
lowerneck 6.49811 -0.235622 -6.44635
upperneck 20.0899 -3.58012 4.24991
head 5.15751 -2.89441 2.25115
rclavicle 4.52235e-015 -2.38542e-015
rhumerus -41.9587 -28.9816 -69.5451
rradius 27.5404
rwrist 14.5281
rhand -13.9745 -37.2405
rfingers 7.12502
rthumb 12.1537 -66.8674
lclavicle 4.52235e-015 -2.38542e-015
lhumerus -30.7429 6.48479 85.7102
lradius 23.7604
lwrist -22.8626
lhand -23.5041 -19.7245
lfingers 7.12502
lthumb 2.95627 10.2348
rfemur -10.9813 7.85074 20.154
rtibia 15.7555
rfoot -30.9116 -5.28697
rtoes -19.9193
lfemur -9.03305 -12.4479 -20.3964
ltibia 14.8734
lfoot -33.9562 7.1589
ltoes -64.4579
432
root 9.22195 27.7785 -10.8054 -168.69 0.331794 179.715
lowerback -7.0116 0.836308 -6.18072
upperback 2.06669 1.60614 1.68056
thorax 5.89914 0.534069 5.4426
lowerneck 6.54627 -0.268157 -6.50802
upperneck 20.0527 -3.65129 4.37157
head 5.14424 -2.92823 2.29881
rclavicle -7.30534e-015 -1.66979e-014
rhumerus -42.215 -29.3436 -69.088
rradius 27.3505
rwrist 14.6584
rhand -14.1198 -36.8042
rfingers 7.12502
rthumb 12.0136 -66.4394
lclavicle -7.30534e-015 -1.66979e-014
lhumerus -30.8778 6.83048 85.4088
lradius 23.4077
lwrist -23.0564
lhand -23.5776 -19.9079
lfingers 7.12502
lthumb 2.88531 10.0523
rfemur -10.9332 7.70658 20.1426
rtibia 15.7034
rfoot -30.8978 -5.18113
rtoes -20.172
lfemur -8.96954 -12.4284 -20.4208
ltibia 14.8265
lfoot -33.9317 7.23684
ltoes -64.5111
433
root 9.22075 27.7779 -10.8087 -168.651 0.442165 179.78
lowerback -7.09708 0.90199 -6.08227
upperback 2.06001 1.69098 1.65567
thorax 5.9318 0.578875 5.37233
lowerneck 6.62787 -0.331313 -6.43953
upperneck 19.9805 -3.75679 4.49036
head 5.11456 -2.96821 2.32351
rclavicle -1.67973e-014 -2.18663e-015
rhumerus -42.5921 -29.8539 -68.5693
rradius 27.155
rwrist 14.974
rhand -14.1631 -36.6863
rfingers 7.12502
rthumb 11.9719 -66.324
lclavicle -1.67973e-014 -2.18663e-015
lhumerus -30.9235 7.07954 85.0307
lradius 22.8642
lwrist -23.3476
lhand -23.261 -19.6679
lfingers 7.12502
lthumb 3.19109 10.2879
rfemur -10.97 7.66043 20.1895
rtibia 15.667
rfoot -30.8166 -4.95984
rtoes -19.7007
lfemur -8.96711 -12.3613 -20.3582
ltibia 14.7858
lfoot -33.928 7.32231
ltoes -64.5622
434
root 9.22165 27.7785 -10.8123 -168.608 0.477416 179.861
lowerback -7.16656 0.780508 -6.08813
upperback 2.13763 1.53002 1.77931
thorax 6.07333 0.489885 5.4932
lowerneck 6.71256 -0.281967 -6.4842
upperneck 19.8093 -3.6714 4.47704
head 5.04302 -2.9254 2.33131
rclavicle -1.38652e-014 -9.14409e-015
rhumerus -42.4915 -29.9536 -68.2469
rradius 26.8856
rwrist 15.3051
rhand -14.0776 -37.03
rfingers 7.12502
rthumb 12.0543 -66.6628
lclavicle -1.38652e-014 -9.14409e-015
lhumerus -30.8533 8.129 84.5752
lradius 22.2472
lwrist -24.0746
lhand -22.9229 -19.1995
lfingers 7.12502
lthumb 3.5176 10.7512
rfemur -10.9582 7.60535 20.2729
rtibia 15.5782
rfoot -30.7706 -4.80488
rtoes -19.4617
lfemur -8.95191 -12.3941 -20.2705
ltibia 14.7198
lfoot -33.9321 7.38513
ltoes -64.5515
